# xmcd
#
# Track frame offsets: 
#        150
#        19171
#        37962
#        56035
#        73710
#        91247
#        110268
#        130863
#        148375
#        164480
#        181979
#        201371
#        219112
#        235351
#        260960
#        277506
#        302106
#
# Disc length: 4386 seconds
#
# Revision: 0
# Processed by: cddbd v1.5.2PL0 Copyright (c) Steve Scherf et al.
# Submitted via: ExactAudioCopy v0.99pb4
#
DISCID=fa112011
DTITLE=Air Supply - Now and forever CD1
DYEAR=2002
DGENRE=Blues
TTITLE0=stop the tears
TTITLE1=lonely is the night
TTITLE2=all out of love
TTITLE3=lost in love
TTITLE4=young love
TTITLE5=always
TTITLE6=without you
TTITLE7=one more chance
TTITLE8=chances
TTITLE9=now and forever
TTITLE10=stronger than the night
TTITLE11=sweet dreams
TTITLE12=what becomes of the broken hearterd
TTITLE13=making love out of nothing at all
TTITLE14=unchanged melody
TTITLE15=the power of love
TTITLE16=it's never too late
EXTD=
EXTT0=
EXTT1=
EXTT2=
EXTT3=
EXTT4=
EXTT5=
EXTT6=
EXTT7=
EXTT8=
EXTT9=
EXTT10=
EXTT11=
EXTT12=
EXTT13=
EXTT14=
EXTT15=
EXTT16=
PLAYORDER=
